<svg xmlns="http://www.w3.org/2000/svg" version="1.1" xmlns:xlink="http://www.w3.org/1999/xlink" xmlns:svgjs="http://svgjs.dev/svgjs" width="1000px" height="1025px" viewBox="0 0 1000 1125"><g transform="matrix(1,0,0,1,0,0)"><svg viewBox="0 0 320 360" data-background-color="#ffffff" preserveAspectRatio="xMidYMid meet" height="1125" width="1000" xmlns="http://www.w3.org/2000/svg" xmlns:xlink="http://www.w3.org/1999/xlink"><g id="tight-bounds" transform="matrix(1,0,0,1,0,0)"><svg viewBox="0 0 320 360" height="360" width="320"><g><svg></svg></g><g><svg viewBox="0 0 320 360" height="360" width="320"><g><path xmlns="http://www.w3.org/2000/svg" d="M219.58 41.008c0.707 0 6.365 2.829 9.547 3.89-1.061 0.354-3.536-0.707-6.365-1.768 0.707 0 2.122 0.354 3.536 1.06-0.707-0.707-6.011-2.475-6.718-3.182M166.895 30.047c1.061-0.354 13.436 1.414 19.094 1.768 0.354-0.354-0.707-0.354-2.122-0.707 1.768-0.354 5.304 0.707 7.779 1.06-7.425 0.354-15.558-1.768-22.629-1.06-2.475 0-0.707-0.707-2.122-1.061M156.641 30.047c6.365 0 11.315 0 2.121 0.707-1.061-0.354-2.475-0.354-2.121-0.707M256.707 59.395c0.707 0 3.536 3.182 4.95 4.243-0.354 0.354-3.182-2.475-4.596-3.536 0.354 0.354 0 0-0.354-0.707M249.635 54.798c-2.829-2.475-3.889-2.475-4.243-3.889 2.475 1.414 4.243 2.829 4.243 3.889M204.022 32.522c0.354-0.354 1.061 0.354 2.829 0.707-2.122-0.354-1.768 0-1.061 0.707-2.475-0.354-3.182-0.707-2.475-1.414 1.414 0.707 1.768 0.354 0.707 0M103.602 36.765c0-0.354 1.414-1.061 2.475-1.414-1.061 0.707-0.707 1.061 1.061 0.353 0 0.354-2.122 1.061-3.536 1.768 0.707-0.354 1.414-1.414 0-0.707M211.094 28.986c-1.061 0.354-4.95-1.768-8.84-2.475-2.122-0.707 8.486 1.768 8.84 2.475M2.475 203.66c2.122 8.84 0.707 8.486 0 0M2.829 150.621c0.354-1.414 0.707-5.304 1.06-4.95-1.061 8.486-2.829 12.376-3.182 18.74 1.061-5.657-0.354 3.182-0.707 5.304 0.354 2.829 0.354-1.768 1.061-1.06 0.707 1.061-1.414 15.912-0.707 7.779-0.707 7.425 0 15.558 1.414 17.679-1.768 11.315 7.072 36.773 8.84 42.077 0.354 0.354 0-1.768 0.707-0.353 0.707 4.597 3.889 7.779 4.95 12.729 1.061 1.414 5.304 9.193 6.011 10.962 1.414 2.829 2.122 2.475 3.536 5.303 4.243 8.133 10.961 15.912 17.326 23.337 20.508 24.044 51.978 43.845 86.984 50.918 35.006 7.425 71.779 2.122 100.419-11.669 1.768-1.061 1.414-1.414 3.536-2.122 9.901-3.182 21.923-13.436 28.641-17.326 3.182-3.536 11.669-9.547 12.73-13.082 6.011-4.95 12.022-13.083 15.204-18.387 1.768-2.829 3.182-2.829 3.889-4.597-0.354 0 5.657-7.425 7.426-11.668-0.707 0-1.768 2.122-1.768 0 12.729-24.398 19.801-57.282 15.911-79.912 0.707 27.934-6.365 59.05-19.801 78.851-6.011 12.729-18.387 26.519-29.701 36.42-1.768 1.768-3.536 3.889-5.658 5.304-6.718 5.657-14.144 10.254-21.922 14.497-18.387 10.254-38.895 19.094-62.94 19.447 41.37-3.536 78.497-24.398 99.006-49.856-15.558 15.204-22.276 21.215-39.602 30.055-1.414 2.475-13.083 7.425-20.862 9.547 4.597-2.122 14.144-5.657 17.326-8.486-25.812 12.376-54.453 19.448-81.326 15.558 10.254 0 24.751 0.354 38.541-2.121 2.122-0.707 3.182-1.414 5.658-1.768 26.873-6.011 52.685-19.094 71.072-37.481-10.608 9.547-26.519 20.862-36.774 24.398 9.547-5.304 26.873-15.558 32.53-23.337-11.315 11.315-32.53 22.63-45.966 27.58-2.122 0.354 1.414-1.414-2.122 0-4.243 1.061-2.475 1.061-3.536 1.768-16.265 4.597-35.006 8.486-50.563 7.072-2.829-0.354-3.889-1.061-6.365-1.061-2.829-0.354-5.304-0.354-8.486-0.354-12.376-1.414-25.812-6.365-35.713-10.607-5.304-2.475-10.608-4.243-15.912-7.426-4.243-2.475-7.779-5.304-11.314-8.132-13.436-9.901-24.751-19.801-35.36-33.945-19.094-26.519-28.994-59.757-27.58-92.641 1.414-32.884 14.497-65.061 35.359-88.752-1.061 1.061 1.414-2.475 3.536-4.596 0 0.707-0.354 1.768 2.122-0.707 2.122-2.475-0.707-0.707 0.353-2.122 21.923-24.044 60.111-43.492 99.36-44.199 1.414-1.061 3.889-2.475 6.718-1.768 0 0.354-1.768 0.354-1.768 0.354 3.889-0.354 7.425-0.354 9.193 0.353 0.354-0.354-1.414-0.707 0-0.707 2.475 0.707 3.182 0 4.597 0.707-1.061 0-2.122 0-2.829 0.354 8.84 0 14.497 2.122 23.337 2.829-4.597-1.061-5.657-1.061-9.193-2.122 3.889 0.707 5.657 1.414 7.425 1.061-0.707 0-0.354-1.061 0.354-0.707 7.072 1.768 7.779 2.475 15.204 4.95 0.707-0.707-3.182-1.061-4.243-2.122 7.072 2.475 13.436 4.243 17.68 7.072-1.414-1.061-5.657-2.475-8.84-3.889-0.354 0.354 1.061 0.707 1.414 1.414-3.536-1.768-8.486-3.536-13.436-4.243 4.243 1.061 7.072 2.475 8.84 3.182-3.889-0.707-8.84-3.182-14.498-4.243 9.193 2.829 26.519 9.193 37.127 14.851-3.889-2.475-8.486-4.243-10.961-5.657 2.122 0.354 4.597 1.768 4.597 1.06 2.475 1.061 5.657 3.536 7.425 3.89-3.182-2.122-9.547-5.304-11.668-6.365 26.519 12.022 50.21 32.177 65.414 57.989 1.414 2.475 3.536 8.133 5.304 8.84-0.354-1.768-1.768-2.829-3.182-5.657 0.707 0 0.707-1.061 0-2.122-1.414-1.768 0 1.414-1.415-0.354-6.365-11.669-14.144-21.923-26.165-33.237 6.718 6.365 1.768 1.768 0.353-0.354 9.193 8.133 19.801 21.923 24.398 28.995-0.707-1.061-1.061-1.768-0.707-1.768 8.486 14.497 13.79 27.58 19.094 46.32 0.354 0.354 0-1.414 0.707-0.353 3.536 14.851 4.597 27.227 4.243 38.541 2.829-19.094-3.536-48.796-14.851-72.133-1.414-2.829-1.414-0.707-2.829-3.889 0-1.061-1.061-3.182-1.768-4.597-14.144-23.337-31.47-39.956-51.978-53.038 1.414 0.707 4.243 2.829 4.244 2.475-38.188-25.105-82.387-28.641-118.807-20.862-2.475 1.061-3.536 2.122-6.365 3.536 5.304-1.768 8.486-2.122 13.437-3.183 1.061-1.061-4.597 0.354-2.122-0.707 0.354 0.354 4.95-0.707 6.011-0.353 0 0.354-1.414 0.707-1.768 1.06 11.669-2.475 23.691-2.829 33.945-2.121-6.011 0.354-16.972-0.707-20.508 1.061 3.536-0.354 8.486-0.707 11.668-0.354-4.243 0-12.022 0.354-15.558 0.707-0.354-0.354 5.657-1.061 1.768-1.06-1.768 0.354-4.597 0.354-5.657 1.414-30.409 2.829-60.111 18.74-80.973 37.481-4.243 3.536-9.193 7.425-12.375 11.314-7.779 8.84-12.729 17.68-18.387 25.459 3.536-7.425 11.315-18.74 20.508-28.287 9.193-9.547 19.094-17.68 24.398-21.923 0 1.414 8.486-5.304 11.669-7.425-2.122 1.768 1.414-0.707 2.121-0.354 11.315-6.718 20.508-9.193 30.763-13.083-2.475 0.707-4.597 1.414-4.951 1.061 2.475-0.707 3.889-1.414 3.536-1.768-9.901 2.829-25.459 9.547-37.834 16.972 22.276-15.204 50.564-24.398 78.497-24.751 27.934-0.707 55.16 6.365 76.729 17.68 14.497 6.365 28.287 18.033 39.249 29.348 3.182 2.829 0.707-0.707 5.304 4.243-1.414-0.707-2.475-1.414-0.707 0.707 2.829 3.182-0.707-2.475 3.889 3.182-0.354 0-1.768-1.768-1.768-1.061 12.376 10.961 21.923 30.762 27.58 43.846-1.414-5.304-4.95-12.729-7.779-18.033 8.486 15.558 11.315 24.751 14.851 38.541 1.414 1.061-0.707-4.95 0.707-2.121 0.354 2.122 0.707 8.84 2.122 9.9-1.061-6.718-2.829-14.851-4.243-16.265 1.061 0.707-1.768-8.133-3.536-10.254-0.707-5.657-5.657-15.558-9.901-22.984-15.204-29.702-42.431-54.099-72.839-67.536 0-0.707-1.768-1.414-2.476-2.121-30.055-12.729-66.122-16.265-100.773-8.133-35.006 8.486-67.889 28.641-91.227 57.636 1.061-3.536 9.901-10.254 10.255-13.083-10.254 10.961-21.215 25.459-28.641 41.016-7.779 15.558-12.022 31.47-13.79 43.138" fill="#0718c4" fill-rule="nonzero" stroke="none" stroke-width="1" stroke-linecap="butt" stroke-linejoin="miter" stroke-miterlimit="10" stroke-dasharray="" stroke-dashoffset="0" font-family="none" font-weight="none" font-size="none" text-anchor="none" style="mix-blend-mode: normal" data-fill-palette-color="tertiary"></path></g><g transform="matrix(1,0,0,1,48,152.1017455887137)"><svg viewBox="0 0 224 55.79650882257258" height="55.79650882257258" width="224"><g><svg viewBox="0 0 316.2242260528302 78.76878490566038" height="55.79650882257258" width="224"><g transform="matrix(1,0,0,1,92.22422605283019,10.88627924528302)"><svg viewBox="0 0 224 56.99622641509434" height="56.99622641509434" width="224"><g id="textblocktransform"><svg viewBox="0 0 224 56.99622641509434" height="56.99622641509434" width="224" id="textblock"><g><svg viewBox="0 0 224 56.99622641509434" height="56.99622641509434" width="224"><g transform="matrix(1,0,0,1,0,0)"><svg width="224" viewBox="0.6800000071525574 -24.1200008392334 148.3800048828125 37.76000213623047" height="56.99622641509434" data-palette-color="#4c5bd7"><path d="M12.72-11.48L12.72-11.48Q11.2-11.48 11.2-14.8L11.2-14.8Q11.2-16.68 11.92-18.32L11.92-18.32Q9.2-15.96 5.84-9.54 2.48-3.12 2.48-1.16L2.48-1.16Q2.48-0.68 1.84-0.68L1.84-0.68Q0.68-0.68 0.68-3.84L0.68-3.84Q0.68-9.8 1.88-14.64 3.08-19.48 4.8-19.48L4.8-19.48Q5.56-19.48 5.56-18.6L5.56-18.6Q3.72-12.76 2.92-6.64L2.92-6.64 3.2-6.64Q6.44-14.12 10.36-18.32L10.36-18.32Q12.6-20.72 14.44-20.72L14.44-20.72Q14.84-20.72 15.1-20.48 15.36-20.24 15.36-19.88L15.36-19.88Q15.08-19.6 14.68-19.04 14.28-18.48 13.6-16.38 12.92-14.28 12.92-11.8L12.92-11.8Q12.92-11.48 12.72-11.48ZM25.76-19.4L25.76-19.4Q28.8-19.4 28.8-15.84L28.8-15.84Q28.8-13.8 27.44-11.56L27.44-11.56Q25.12-7.84 21.28-7.84L21.28-7.84Q20.68-7.84 20.28-8.04 19.88-8.24 19.68-8.64L19.68-8.64Q22.52-8.64 24.88-11.92L24.88-11.92Q26.8-14.56 26.8-16.76L26.8-16.76Q26.8-18.4 25.48-18.4L25.48-18.4Q22.84-18.4 20.56-14.28L20.56-14.28Q18.12-9.8 18.12-5.08L18.12-5.08Q18.12-1.08 20.4-0.28L20.4-0.28Q20.84-0.12 21.52-0.12 22.2-0.12 22.96-0.46 23.72-0.8 24.24-1.28L24.24-1.28Q25.28-2.24 25.96-3.4L25.96-3.4Q26.12-3.72 26.56-3.72L26.56-3.72Q27.28-3.72 27.24-3.48L27.24-3.48Q27.12-3.04 26.34-2 25.56-0.96 24.9-0.34 24.24 0.28 23.18 0.78 22.12 1.28 21.04 1.28L21.04 1.28Q16.8 1.28 15.64-2.72L15.64-2.72Q15.28-4.08 15.28-5.52L15.28-5.52Q15.28-8.2 16.52-11.36L16.52-11.36Q18.48-16.16 21.92-18.28L21.92-18.28Q23.8-19.4 25.76-19.4ZM34.23 0L34.23 0Q30.95 0 30.95-5.16L30.95-5.16Q30.95-8.24 32.48-11.92L32.48-11.92Q34.59-17.08 38.03-18.96L38.03-18.96Q39.52-19.76 40.8-19.76 42.08-19.76 42.81-19.2 43.55-18.64 43.76-18.08L43.76-18.08 44-17.56Q43.88-16.88 43.31-16.88L43.31-16.88Q42.67-16.88 42.58-17.18 42.48-17.48 42.36-17.7 42.23-17.92 41.8-18.3 41.36-18.68 40.8-18.68L40.8-18.68Q38.2-18.68 36.08-14L36.08-14Q33.67-8.6 33.67-3.84L33.67-3.84Q33.67-1.44 34.63-1.44L34.63-1.44Q35.4-1.44 36.77-3.14 38.16-4.84 39.67-7.4L39.67-7.4Q42.31-11.8 43.95-15.04L43.95-15.04Q45.31-17.92 46.76-17.92L46.76-17.92Q47.52-17.92 47.52-17L47.52-17Q47.16-16.24 46.59-14.84 46.03-13.44 45.12-9.28 44.2-5.12 44.2-1 44.2 3.12 45.44 3.12L45.44 3.12Q45.91 3.12 46.31 2.7 46.72 2.28 47.03 1.44L47.03 1.44Q47.16 1 47.59 1L47.59 1Q47.75 1 47.84 1.12 47.91 1.24 47.84 1.52 47.75 1.8 47.55 2.3 47.36 2.8 46.7 3.64 46.03 4.48 45.31 4.48L45.31 4.48Q43.63 4.48 42.73 2.28 41.84 0.08 41.84-2.92 41.84-5.92 42.27-8.68L42.27-8.68 41.88-8.68Q36.8 0 34.23 0ZM60.59-3.32Q60.75-3.68 61.27-3.68 61.79-3.68 61.79-3.44L61.79-3.44 61.79-3.32Q61.63-2.88 60.91-1.9 60.19-0.92 59.53-0.32 58.87 0.28 57.83 0.78 56.79 1.28 55.71 1.28L55.71 1.28Q51.51 1.28 50.35-2.76L50.35-2.76Q49.31-6.52 51.19-11.32 53.07-16.12 56.43-18.2L56.43-18.2Q58.19-19.28 59.79-19.28 61.39-19.28 62.11-18.36L62.11-18.36Q63.19-21.84 64.87-21.84L64.87-21.84Q65.51-21.84 65.51-21.16L65.51-21.16Q65.19-20.68 64.69-19.9 64.19-19.12 63.35-17.12 62.51-15.12 62.51-13.6L62.51-13.6Q62.51-13.08 62.07-13.08L62.07-13.08Q61.55-13.08 61.47-14L61.47-14Q61.47-15.56 61.75-16.92L61.75-16.92Q61.51-18.16 59.99-18.16L59.99-18.16Q57.11-18.16 54.93-13.8 52.75-9.44 52.75-5.28L52.75-5.28Q52.75-0.08 56.03-0.08L56.03-0.08Q57.31-0.08 58.45-0.88 59.59-1.68 60.07-2.48L60.07-2.48 60.59-3.32ZM67.87-17.32L67.87-17.32Q66.31-17.32 66.31-18.6L66.31-18.6Q66.31-19.08 66.71-19.2L66.71-19.2Q66.75-19.24 66.83-19.24L66.83-19.24Q67.07-18.96 67.73-18.96 68.39-18.96 69.83-19.04L69.83-19.04Q71.71-24.12 73.43-24.12L73.43-24.12Q74.11-24.12 74.11-23.36L74.11-23.36Q73.47-21.76 72.67-19.24L72.67-19.24Q76.63-19.68 77.83-19.68L77.83-19.68Q78.15-19.68 78.15-19.36L78.15-19.36Q78.15-18.72 77.31-18.72L77.31-18.72Q76.87-18.72 72.23-17.88L72.23-17.88Q69.07-7.88 69.07-1.68 69.07 4.52 71.55 4.52L71.55 4.52Q72.55 4.52 73.43 3.66 74.31 2.8 74.67 1.96L74.67 1.96Q74.83 1.52 75.35 1.72L75.35 1.72Q75.59 1.8 75.51 1.96L75.51 1.96Q75.27 2.48 74.91 3.16 74.55 3.84 73.51 4.84 72.47 5.84 71.39 5.84L71.39 5.84Q66.63 5.84 66.63-2.44L66.63-2.44Q66.63-9.44 69.23-17.4L69.23-17.4Q68.67-17.32 67.87-17.32ZM94.91-12.04L94.91-12.04Q94.91-12.04 80.91-11.72L80.91-11.72Q79.75-11.72 79.59-12.52L79.59-12.52Q79.63-13.12 80.07-13.24L80.07-13.24Q80.23-13 80.91-13L80.91-13 95.39-13Q95.79-13 95.75-12.56L95.75-12.56Q95.59-12.08 94.91-12.04ZM110.79-3.32Q110.95-3.68 111.47-3.68 111.99-3.68 111.99-3.44L111.99-3.44 111.99-3.32Q111.83-2.88 111.11-1.9 110.39-0.92 109.73-0.32 109.07 0.28 108.03 0.78 106.99 1.28 105.91 1.28L105.91 1.28Q101.71 1.28 100.55-2.76L100.55-2.76Q99.51-6.52 101.39-11.32 103.27-16.12 106.63-18.2L106.63-18.2Q108.39-19.28 109.99-19.28 111.59-19.28 112.31-18.36L112.31-18.36Q113.39-21.84 115.07-21.84L115.07-21.84Q115.71-21.84 115.71-21.16L115.71-21.16Q115.39-20.68 114.89-19.9 114.39-19.12 113.55-17.12 112.71-15.12 112.71-13.6L112.71-13.6Q112.71-13.08 112.27-13.08L112.27-13.08Q111.75-13.08 111.67-14L111.67-14Q111.67-15.56 111.95-16.92L111.95-16.92Q111.71-18.16 110.19-18.16L110.19-18.16Q107.31-18.16 105.13-13.8 102.95-9.44 102.95-5.28L102.95-5.28Q102.95-0.08 106.23-0.08L106.23-0.08Q107.51-0.08 108.65-0.88 109.79-1.68 110.27-2.48L110.27-2.48 110.79-3.32ZM115.26 13.44L115.26 13.44Q112.14 13.44 112.14 10.44L112.14 10.44Q112.14 7.8 114.84 4.22 117.54 0.64 121.62-0.92L121.62-0.92Q121.82-1 122.02-0.82 122.22-0.64 122.22-0.42 122.22-0.2 121.98-0.08L121.98-0.08Q117.86 1.44 115.06 5.52L115.06 5.52Q113.18 8.32 113.18 10.12 113.18 11.92 114.58 11.96L114.58 11.96Q117.9 11.96 121.82 7.4L121.82 7.4Q125.14 3.56 126.3-0.28L126.3-0.28Q126.7-1.6 126.7-2.48L126.7-2.48Q126.7-4.36 124.94-4.36L124.94-4.36Q123.58-4.36 121.62-3.46 119.66-2.56 119.1-2.56L119.1-2.56Q118.18-2.56 117.94-3.92L117.94-3.92 117.86-4.4Q120.82-4.4 123.86-8.48L123.86-8.48Q126.42-12 126.98-15.32L126.98-15.32Q127.06-15.92 127.06-16.4L127.06-16.4Q127.06-18.32 125.5-18.36L125.5-18.36Q123.9-18.36 122.36-17.14 120.82-15.92 119.84-14.34 118.86-12.76 118.26-11.48 117.66-10.2 117.66-9.92 117.66-9.64 117.28-9.54 116.9-9.44 116.52-9.64 116.14-9.84 116.14-10.3 116.14-10.76 116.9-12.18 117.66-13.6 118.88-15.26 120.1-16.92 121.96-18.2 123.82-19.48 125.64-19.48 127.46-19.48 128.46-18.28 129.46-17.08 129.46-15.16L129.46-15.16Q129.46-10 124.18-5.36L124.18-5.36Q124.66-5.44 124.94-5.44L124.94-5.44Q128.7-5.44 128.7-1.28L128.7-1.28Q128.7 1.72 126.46 5.56L126.46 5.56Q123.7 10.24 119.7 12.32L119.7 12.32Q117.46 13.44 115.26 13.44ZM135.74 0L135.74 0Q132.46 0 132.46-5.16L132.46-5.16Q132.46-8.24 133.98-11.92L133.98-11.92Q136.1-17.08 139.54-18.96L139.54-18.96Q141.02-19.76 142.3-19.76 143.58-19.76 144.32-19.2 145.06-18.64 145.26-18.08L145.26-18.08 145.5-17.56Q145.38-16.88 144.82-16.88L144.82-16.88Q144.18-16.88 144.08-17.18 143.98-17.48 143.86-17.7 143.74-17.92 143.3-18.3 142.86-18.68 142.3-18.68L142.3-18.68Q139.7-18.68 137.58-14L137.58-14Q135.18-8.6 135.18-3.84L135.18-3.84Q135.18-1.44 136.14-1.44L136.14-1.44Q137.22-1.44 139.6-4.96 141.98-8.48 143.82-12L143.82-12 145.7-15.52Q146.9-17.96 148.22-17.96L148.22-17.96Q149.06-17.96 149.06-17L149.06-17Q148.54-15.88 147.62-12.7 146.7-9.52 146.1-6.78 145.5-4.04 145-0.04 144.5 3.96 144.5 8.12 144.5 12.28 145.98 12.28L145.98 12.28Q146.42 12.28 146.88 11.9 147.34 11.52 147.48 11.52 147.62 11.52 147.7 11.62 147.78 11.72 147.72 11.92 147.66 12.12 147.48 12.4 147.3 12.68 146.74 13.16 146.18 13.64 145.66 13.64L145.66 13.64Q142.3 13.64 142.3 5.88L142.3 5.88Q142.3-0.92 143.74-8.68L143.74-8.68 143.38-8.68Q138.3 0 135.74 0Z" opacity="1" transform="matrix(1,0,0,1,0,0)" fill="#4c5bd7" class="undefined-text-0" data-fill-palette-color="primary" id="text-0"></path></svg></g></svg></g></svg></g></svg></g><g><svg viewBox="0 0 78.76878490566038 78.76878490566038" height="78.76878490566038" width="78.76878490566038"><g><svg xmlns="http://www.w3.org/2000/svg" data-name="Layer 1" viewBox="0 0 128 128" x="0" y="0" height="78.76878490566038" width="78.76878490566038" class="icon-icon-0" data-fill-palette-color="accent" id="icon-0"><path d="M18.136 82.998c-4.542 11.393-4.679 20.969 0.609 26.257 2.711 2.711 6.544 3.998 11.174 3.998a41.839 41.839 0 0 0 15.084-3.387C49.847 121.133 56.521 128 64 128s14.153-6.867 18.997-18.135a41.841 41.841 0 0 0 15.084 3.387c4.628 0 8.464-1.287 11.174-3.997 5.288-5.288 5.151-14.864 0.609-26.257C121.132 78.154 128 71.479 128 64s-6.868-14.154-18.136-18.998c4.542-11.393 4.679-20.969-0.609-26.257C103.966 13.457 94.39 13.593 82.998 18.135 78.154 6.868 71.479 0 64 0 56.521 0 49.846 6.868 45.002 18.136c-11.392-4.542-20.968-4.679-26.257 0.609-5.288 5.288-5.151 14.864-0.609 26.257C6.868 49.846 0 56.521 0 64S6.868 78.154 18.136 82.998Zm3.437 23.429c-4.121-4.121-3.695-12.19 0.274-21.963a100.747 100.747 0 0 0 17.21 4.479A100.75 100.75 0 0 0 43.535 106.153C33.763 110.121 25.696 110.546 21.573 106.427Zm15.493-38.063Q35.315 66.18 33.71 64q1.604-2.179 3.356-4.364C37.027 61.078 37 62.53 37 64S37.027 66.922 37.066 68.364Zm-5.816-7.814a98.957 98.957 0 0 1-7.776-13.336A98.959 98.959 0 0 1 38.402 43.282q-0.656 4.687-1.012 9.696Q34.103 56.764 31.25 60.55ZM37.39 75.022q0.352 5.001 1.012 9.696a98.959 98.959 0 0 1-14.928-3.932 98.957 98.957 0 0 1 7.776-13.336Q34.1 71.228 37.39 75.022ZM47.736 47.736q3.382-3.382 6.856-6.436Q59.203 41.007 64 41q4.789 0 9.408 0.3 3.463 3.051 6.856 6.436 3.384 3.384 6.437 6.861Q86.993 59.206 87 64q0 4.786-0.299 9.403-3.052 3.465-6.437 6.861-3.384 3.384-6.861 6.437Q68.794 86.993 64 87q-4.786 0-9.403-0.299-3.465-3.052-6.861-6.437-3.384-3.384-6.437-6.861Q41.007 68.794 41 64q0-4.786 0.299-9.403Q44.352 51.131 47.736 47.736Zm-5.867 0.305q0.306-2.783 0.713-5.459 2.675-0.406 5.459-0.713c-1.048 0.992-2.093 1.999-3.133 3.039S42.862 46.993 41.869 48.041ZM59.625 37.067q2.189-1.756 4.375-3.361 2.184 1.608 4.375 3.361C66.929 37.027 65.474 37 64 37S61.071 37.027 59.625 37.067ZM79.959 41.869q2.783 0.306 5.459 0.713 0.406 2.675 0.713 5.459c-0.992-1.048-2-2.093-3.039-3.133S81.007 42.862 79.959 41.869Zm6.172 38.09q-0.306 2.783-0.713 5.459-2.672 0.406-5.453 0.712 1.569-1.486 3.127-3.038C84.131 82.052 85.138 81.007 86.131 79.959ZM68.364 90.934q-2.184 1.752-4.364 3.357-2.179-1.604-4.365-3.357C61.078 90.973 62.53 91 64 91S66.922 90.973 68.364 90.934ZM48.035 86.13q-2.78-0.306-5.453-0.712-0.406-2.675-0.713-5.459c0.992 1.048 2 2.093 3.039 3.133Q46.465 84.648 48.035 86.13Zm-4.753 3.468q4.685 0.655 9.691 1.012 3.786 3.288 7.573 6.143a98.939 98.939 0 0 1-13.332 7.773A98.957 98.957 0 0 1 43.282 89.598ZM64 124c-5.827 0-11.23-6.004-15.334-15.718a100.87 100.87 0 0 0 15.334-9.011 100.857 100.857 0 0 0 15.335 9.01C75.231 117.996 69.827 124 64 124Zm16.786-19.473A98.95 98.95 0 0 1 67.454 96.753q3.778-2.851 7.574-6.143 4.998-0.352 9.69-1.012A98.956 98.956 0 0 1 80.786 104.527Zm25.641 1.9c-4.121 4.122-12.19 3.696-21.963-0.273a100.752 100.752 0 0 0 4.479-17.211 100.747 100.747 0 0 0 17.21-4.479C110.122 94.237 110.547 102.306 106.427 106.427ZM90.934 59.636Q92.685 61.82 94.29 64q-1.604 2.179-3.356 4.364C90.973 66.922 91 65.47 91 64S90.973 61.078 90.934 59.636ZM90.61 52.978q-0.352-5.001-1.012-9.696a98.959 98.959 0 0 1 14.928 3.932 98.957 98.957 0 0 1-7.776 13.336Q93.9 56.772 90.61 52.978Zm0 22.044q3.287-3.785 6.14-7.572a98.957 98.957 0 0 1 7.776 13.336A98.959 98.959 0 0 1 89.598 84.718Q90.254 80.031 90.61 75.022ZM124 64c0 5.828-6.006 11.232-15.723 15.336A100.743 100.743 0 0 0 99.274 64 100.743 100.743 0 0 0 108.277 48.664C117.994 52.768 124 58.172 124 64ZM98.044 18.67c3.534 0 6.41 0.932 8.383 2.903 4.121 4.121 3.695 12.19-0.273 21.963a100.747 100.747 0 0 0-17.211-4.479 100.75 100.75 0 0 0-4.479-17.211A37.466 37.466 0 0 1 98.044 18.67ZM84.718 38.402q-4.687-0.656-9.696-1.012-3.784-3.286-7.569-6.138a99.022 99.022 0 0 1 13.333-7.779A98.949 98.949 0 0 1 84.718 38.402ZM64 4c5.828 0 11.232 6.006 15.336 15.722a100.746 100.746 0 0 0-15.337 9.004A100.755 100.755 0 0 0 48.664 19.723C52.768 10.006 58.172 4 64 4ZM47.214 23.474a99.029 99.029 0 0 1 13.333 7.778q-3.777 2.85-7.569 6.138-5.001 0.352-9.696 1.012A98.954 98.954 0 0 1 47.214 23.474ZM21.573 21.573c1.973-1.973 4.848-2.903 8.383-2.903a37.465 37.465 0 0 1 13.58 3.176 100.749 100.749 0 0 0-4.479 17.211A100.747 100.747 0 0 0 21.846 43.536C17.878 33.763 17.453 25.694 21.573 21.573ZM19.723 48.664A100.743 100.743 0 0 0 28.726 64 100.743 100.743 0 0 0 19.723 79.336C10.006 75.232 4 69.828 4 64S10.006 52.768 19.723 48.664Z" fill="#0718c4" data-fill-palette-color="accent"></path><path d="M64 81A17 17 0 1 0 47 64 17.019 17.019 0 0 0 64 81Zm0-30A13 13 0 1 1 51 64 13.015 13.015 0 0 1 64 51Z" fill="#0718c4" data-fill-palette-color="accent"></path><path d="M64 72a8 8 0 1 0-8-8A8.009 8.009 0 0 0 64 72Zm0-12a4 4 0 1 1-4 4A4.004 4.004 0 0 1 64 60Z" fill="#0718c4" data-fill-palette-color="accent"></path></svg></g></svg></g></svg></g></svg></g></svg></g><defs></defs></svg><rect width="320" height="360" fill="none" stroke="none" visibility="hidden"></rect></g></svg></g></svg>